HIERARCHY
ROOT Hips
{
  OFFSET 59.6053 92.8041 8.44153
  CHANNELS 6 Xposition Yposition Zposition Zrotation Xrotation Yrotation
  JOINT spine
  {
    OFFSET 0 7.4756 0.429885
    CHANNELS 3 Zrotation Xrotation Yrotation
    JOINT spine1
    {
      OFFSET 0 9.92301 0
      CHANNELS 3 Zrotation Xrotation Yrotation
      JOINT spine2
      {
        OFFSET 0 9.50804 0
        CHANNELS 3 Zrotation Xrotation Yrotation
        JOINT Neck
        {
          OFFSET 0 24.4111 1.16384
          CHANNELS 3 Zrotation Xrotation Yrotation
          JOINT Head
          {
            OFFSET 0 7.37523 0
            CHANNELS 3 Zrotation Xrotation Yrotation
            End Site
            {
              OFFSET 0 17.8522 -5.88741
            }
          }
        }
        JOINT RightShoulder
        {
          OFFSET -4.00356 10.2679 -0.557468
          CHANNELS 3 Zrotation Xrotation Yrotation
          JOINT RightArm
          {
            OFFSET 0 13.4673 0
            CHANNELS 3 Zrotation Xrotation Yrotation
            JOINT RightArmRoll
            {
              OFFSET 0 6.79858 0
              CHANNELS 3 Zrotation Xrotation Yrotation
              JOINT RightForeArm
              {
                OFFSET 0 19.8018 0
                CHANNELS 3 Zrotation Xrotation Yrotation
                JOINT RightForeArmRoll
                {
                  OFFSET 0 7.62906 0
                  CHANNELS 3 Zrotation Xrotation Yrotation
                  JOINT RightHand
                  {
                    OFFSET 0 15.3098 0
                    CHANNELS 3 Zrotation Xrotation Yrotation
                    End Site
                    {
                      OFFSET 0 0 0
                    }
                  }
                }
              }
            }
          }
        }
        JOINT LeftShoulder
        {
          OFFSET 4.00356 10.2679 -0.557468
          CHANNELS 3 Zrotation Xrotation Yrotation
          JOINT LeftArm
          {
            OFFSET 0 13.4673 0
            CHANNELS 3 Zrotation Xrotation Yrotation
            JOINT LeftArmRoll
            {
              OFFSET 0 6.79858 0
              CHANNELS 3 Zrotation Xrotation Yrotation
              JOINT LeftForeArm
              {
                OFFSET 0 19.8018 0
                CHANNELS 3 Zrotation Xrotation Yrotation
                JOINT LeftForeArmRoll
                {
                  OFFSET 0 7.62905 0
                  CHANNELS 3 Zrotation Xrotation Yrotation
                  JOINT LeftHand
                  {
                    OFFSET 0 15.3098 0
                    CHANNELS 3 Zrotation Xrotation Yrotation
                    End Site
                    {
                      OFFSET 0 0 0
                    }
                  }
                }
              }
            }
          }
        }
      }
    }
  }
  JOINT RightUpLeg
  {
    OFFSET -6.62609 -1.21505 -1.01927
    CHANNELS 3 Zrotation Xrotation Yrotation
    JOINT RightUpLegRoll
    {
      OFFSET 0 17.9517 0
      CHANNELS 3 Zrotation Xrotation Yrotation
      JOINT RightLeg
      {
        OFFSET 0 -22.2304 0
        CHANNELS 3 Zrotation Xrotation Yrotation
        JOINT RightLegRoll
        {
          OFFSET 0 22.3032 0
          CHANNELS 3 Zrotation Xrotation Yrotation
          JOINT RightFoot
          {
            OFFSET 0 18.5636 0
            CHANNELS 3 Zrotation Xrotation Yrotation
            JOINT RightToeBase
            {
              OFFSET 0 15.5183 0
              CHANNELS 3 Zrotation Xrotation Yrotation
              End Site
              {
                OFFSET 0.00657761 7.51538 -0.866263
              }
            }
          }
        }
      }
    }
  }
  JOINT LeftUpLeg
  {
    OFFSET 6.62609 -1.21505 -1.01927
    CHANNELS 3 Zrotation Xrotation Yrotation
    JOINT LeftUpLegRoll
    {
      OFFSET 0 17.9518 0
      CHANNELS 3 Zrotation Xrotation Yrotation
      JOINT LeftLeg
      {
        OFFSET 0 22.2303 0
        CHANNELS 3 Zrotation Xrotation Yrotation
        JOINT LeftLegRoll
        {
          OFFSET 0 22.5093 0
          CHANNELS 3 Zrotation Xrotation Yrotation
          JOINT LeftFoot
          {
            OFFSET 0 18.3575 0
            CHANNELS 3 Zrotation Xrotation Yrotation
            JOINT LeftToeBase
            {
              OFFSET 0 15.5183 0
              CHANNELS 3 Zrotation Xrotation Yrotation
              End Site
              {
                OFFSET -0.029478 7.51539 -0.866263
              }
            }
          }
        }
      }
    }
  }
}
MOTION
Frames: 11
Frame Time: 0.00208333
59.0557 92.753 7.10162 1.43065 -10.2263 -4.92237 0.130037 0.157144 0.126943 0.258708 4.31735 0.236685 0.256274 5.96243 0.232613 -15.9685 1.17315 0.196366 15.7147 9.81223 -2.27195 54.4998 -3.5731 -1.85244 120.9 7.36777 15.257 4.69567e-007 -9.95962e-007 -8.20839e-006 6.82414 1.88415 -1.16781 5.24525e-006 2.55124e-006 -3.01207 8.0293 -4.95146 0.69768 -82.6941 -1.49628 3.22306 -95.477 1.82783 -24.8154 -6.01903e-007 2.33448e-007 8.18452e-006 -3.85176 7.08612 1.1737 -1.04969e-005 -9.89985e-007 3.00993 -8.02973 -4.95143 -0.697661 173.888 5.30212 2.77834 -180 7.01489e-015 178.694 -179.558 27.5129 178.685 1.6134e-006 -4.95199e-006 0.477408 -18.8206 68.0124 19.552 8.1518 27.6609 -0.224556 174.904 -5.33808 4.00007 4.54188e-006 -4.6773e-006 -1.108 -4.81546 -8.97577 -0.143827 -1.11132e-006 4.10045e-006 -0.104026 19.2481 68.9562 -20.3519 -8.1365 25.2327 3.48774 
59.0966 92.7428 7.06014 1.42073 -10.1657 -4.92106 0.131457 0.141494 0.124253 0.261142 4.28605 0.231184 0.258776 5.93112 0.227063 -15.948 1.21314 0.217562 15.6809 9.79529 -2.25051 54.5647 -3.55517 -1.84616 120.798 7.20414 15.3067 4.69567e-007 -9.95962e-007 -8.20839e-006 6.85378 2.00103 -1.17765 5.24525e-006 2.55124e-006 -3.01207 8.0293 -4.95146 0.69768 -82.6634 -1.50503 3.22354 -95.4221 1.79595 -24.8005 -6.01903e-007 2.33448e-007 8.18452e-006 -3.88244 7.13865 1.17886 -1.04969e-005 -9.89985e-007 3.00993 -8.02973 -4.95143 -0.697661 173.915 5.35934 2.75846 -180 7.01489e-015 178.694 -179.561 27.4991 178.686 1.6134e-006 -4.95199e-006 0.477408 -18.8138 68.0044 19.5447 8.15208 27.6541 -0.233297 174.925 -5.26863 3.99727 4.54188e-006 -4.6773e-006 -1.10774 -4.81416 -8.98674 -0.144001 -1.11132e-006 4.10045e-006 -0.104026 19.2568 68.9658 -20.361 -8.1365 25.2327 3.48774 
59.0608 92.75 7.07581 1.41065 -10.1026 -4.92049 0.132967 0.125388 0.12162 0.263723 4.25384 0.225789 0.261423 5.89891 0.221617 -15.9294 1.25162 0.239131 15.6488 9.77913 -2.22889 54.6283 -3.53635 -1.83917 120.7 7.03506 15.3586 4.69567e-007 -9.95962e-007 -8.20839e-006 6.88315 2.12099 -1.18785 5.24525e-006 2.55124e-006 -3.01207 8.0293 -4.95146 0.69768 -82.6324 -1.51472 3.22435 -95.3692 1.7614 -24.7835 -6.01903e-007 2.33448e-007 8.18452e-006 -3.9151 7.19414 1.18438 -1.04969e-005 -9.89985e-007 3.00993 -8.02973 -4.95143 -0.697661 173.943 5.41923 2.73814 -180 7.01489e-015 178.694 -179.564 27.4847 178.687 1.6134e-006 -4.95199e-006 0.477408 -18.8066 67.9959 19.5369 8.15239 27.647 -0.242538 174.946 -5.19637 3.99419 4.54188e-006 -4.6773e-006 -1.10744 -4.8132 -8.99796 -0.144201 -1.11132e-006 4.10045e-006 -0.104026 19.2653 68.9752 -20.37 -8.1365 25.2327 3.48774 
59.0538 92.7542 7.09876 1.40045 -10.0379 -4.92046 0.134541 0.108965 0.119027 0.266404 4.22099 0.220467 0.264171 5.86606 0.216243 -15.9121 1.28904 0.260961 15.6178 9.76353 -2.20716 54.691 -3.51692 -1.8317 120.606 6.86219 15.4121 4.69567e-007 -9.95962e-007 -8.20839e-006 6.91234 2.2431 -1.1983 5.24525e-006 2.55124e-006 -3.01207 8.0293 -4.95146 0.69768 -82.6013 -1.52507 3.22537 -95.3176 1.72498 -24.7651 -6.01903e-007 2.33448e-007 8.18452e-006 -3.94916 7.25172 1.19016 -1.04969e-005 -9.89985e-007 3.00993 -8.02973 -4.95143 -0.697661 173.971 5.48098 2.7175 -180 7.01489e-015 178.694 -179.568 27.4699 178.688 1.6134e-006 -4.95199e-006 0.477408 -18.7991 67.987 19.5287 8.15271 27.6397 -0.252126 174.969 -5.12214 3.99092 4.54188e-006 -4.6773e-006 -1.1071 -4.81249 -9.00936 -0.144418 -1.11132e-006 4.10045e-006 -0.104026 19.2738 68.9845 -20.3788 -8.1365 25.2327 3.48774 
59.0404 92.7552 7.0952 1.39019 -9.97222 -4.92073 0.13615 0.0923587 0.116457 0.26914 4.18778 0.215189 0.266973 5.83285 0.210911 -15.8955 1.32586 0.28294 15.5876 9.74824 -2.18537 54.7532 -3.49712 -1.82395 120.513 6.6872 15.4666 4.69567e-007 -9.95962e-007 -8.20839e-006 6.94144 2.36644 -1.2089 5.24525e-006 2.55124e-006 -3.01207 8.0293 -4.95146 0.69768 -82.5699 -1.5358 3.22653 -95.2667 1.68748 -24.7458 -6.01903e-007 2.33448e-007 8.18452e-006 -3.98402 7.31049 1.19608 -1.04969e-005 -9.89985e-007 3.00993 -8.02973 -4.95143 -0.697661 173.999 5.5438 2.69669 -180 7.01489e-015 178.694 -179.572 27.4549 178.69 1.6134e-006 -4.95199e-006 0.477408 -18.7915 67.9779 19.5204 8.15303 27.6321 -0.261913 174.991 -5.04679 3.98754 4.54188e-006 -4.6773e-006 -1.10675 -4.81192 -9.02085 -0.144645 -1.11132e-006 4.10045e-006 -0.104026 19.2822 68.9937 -20.3876 -8.1365 25.2327 3.48774 
59.0379 92.7509 7.05628 1.37991 -9.9063 -4.92108 0.137767 0.0757074 0.113892 0.271886 4.15447 0.209921 0.269783 5.79954 0.20559 -15.8791 1.36253 0.304958 15.5575 9.73303 -2.16355 54.8152 -3.47724 -1.81613 120.421 6.51174 15.5214 4.69567e-007 -9.95962e-007 -8.20839e-006 6.97056 2.49008 -1.21954 5.24525e-006 2.55124e-006 -3.01207 8.0293 -4.95146 0.69768 -82.5386 -1.54662 3.22771 -95.216 1.64971 -24.7264 -6.01903e-007 2.33448e-007 8.18452e-006 -4.01909 7.36955 1.20205 -1.04969e-005 -9.89985e-007 3.00993 -8.02973 -4.95143 -0.697661 174.028 5.60689 2.67583 -180 7.01489e-015 178.694 -179.575 27.4399 178.691 1.6134e-006 -4.95199e-006 0.477408 -18.7838 67.9688 19.5121 8.15336 27.6246 -0.271749 175.013 -4.97116 3.98414 4.54188e-006 -4.6773e-006 -1.10638 -4.81138 -9.03237 -0.144875 -1.11132e-006 4.10045e-006 -0.104026 19.2905 69.0029 -20.3963 -8.1365 25.2327 3.48774 
59.0263 92.7539 7.06755 1.36967 -9.84087 -4.92128 0.139363 0.0591471 0.111316 0.274595 4.12135 0.204633 0.272557 5.76642 0.200249 -15.8623 1.3995 0.326902 15.5271 9.71766 -2.14178 54.8775 -3.45754 -1.80845 120.328 6.33748 15.5759 4.69567e-007 -9.95962e-007 -8.20839e-006 6.99979 2.61311 -1.23012 5.24525e-006 2.55124e-006 -3.01207 8.0293 -4.95146 0.69768 -82.5073 -1.55725 3.22883 -95.165 1.61245 -24.7074 -6.01903e-007 2.33448e-007 8.18452e-006 -4.05377 7.42802 1.20794 -1.04969e-005 -9.89985e-007 3.00993 -8.02973 -4.95143 -0.697661 174.056 5.66944 2.65506 -180 7.01489e-015 178.694 -179.579 27.425 178.692 1.6134e-006 -4.95199e-006 0.477408 -18.7762 67.9597 19.5038 8.15368 27.6171 -0.281484 175.036 -4.89608 3.98081 4.54188e-006 -4.6773e-006 -1.10603 -4.81077 -9.04384 -0.145099 -1.11132e-006 4.10045e-006 -0.104026 19.299 69.0121 -20.4051 -8.1365 25.2327 3.48774 
59.0157 92.7532 7.02932 1.3595 -9.77663 -4.92113 0.140913 0.0428142 0.108712 0.277221 4.08868 0.199293 0.27525 5.73375 0.194857 -15.8447 1.43722 0.34866 15.4958 9.70189 -2.12009 54.9405 -3.43827 -1.80112 120.234 6.16606 15.6294 4.69567e-007 -9.95962e-007 -8.20839e-006 7.02922 2.7346 -1.24053 5.24525e-006 2.55124e-006 -3.01207 8.0293 -4.95146 0.69768 -82.4762 -1.56741 3.2298 -95.1129 1.57652 -24.6894 -6.01903e-007 2.33448e-007 8.18452e-006 -4.08748 7.48501 1.21366 -1.04969e-005 -9.89985e-007 3.00993 -8.02973 -4.95143 -0.697661 174.084 5.73066 2.63451 -180 -7.01489e-015 178.694 -179.582 27.4103 178.693 1.6134e-006 -4.95199e-006 0.477408 -18.7688 67.9509 19.4958 8.15398 27.6098 -0.290967 175.058 -4.82242 3.97763 4.54188e-006 -4.6773e-006 -1.1057 -4.80999 -9.05519 -0.145312 -1.11132e-006 4.10045e-006 -0.104026 19.3075 69.0215 -20.414 -8.1365 25.2327 3.48774 
59.0059 92.7532 7.03179 1.34946 -9.71431 -4.92038 0.142386 0.0268452 0.106062 0.279719 4.05674 0.193869 0.277814 5.70181 0.189384 -15.8257 1.47615 0.370122 15.4633 9.68549 -2.09855 55.0044 -3.41972 -1.79435 120.137 5.99914 15.6812 4.69567e-007 -9.95962e-007 -8.20839e-006 7.05894 2.85363 -1.25067 5.24525e-006 2.55124e-006 -3.01207 8.0293 -4.95146 0.69768 -82.4453 -1.57682 3.2305 -95.0592 1.54271 -24.6731 -6.01903e-007 2.33448e-007 8.18452e-006 -4.11961 7.53961 1.21909 -1.04969e-005 -9.89985e-007 3.00993 -8.02973 -4.95143 -0.697661 174.112 5.78976 2.61431 -180 7.01489e-015 178.694 -179.586 27.3961 178.694 1.6134e-006 -4.95199e-006 0.477408 -18.7618 67.9425 19.4882 8.15426 27.6028 -0.30005 175.079 -4.751 3.97467 4.54188e-006 -4.6773e-006 -1.10542 -4.80893 -9.06633 -0.145504 -1.11132e-006 4.10045e-006 -0.104026 19.3161 69.0309 -20.4231 -8.1365 25.2327 3.48774 
58.9867 92.7578 7.01999 1.33959 -9.65462 -4.91881 0.143757 0.0113766 0.103349 0.282044 4.0258 0.18833 0.280207 5.67087 0.183799 -15.8048 1.51674 0.391176 15.429 9.66822 -2.07719 55.0698 -3.40214 -1.78835 120.036 5.83835 15.7309 4.69567e-007 -9.95962e-007 -8.20839e-006 7.08905 2.96928 -1.26043 5.24525e-006 2.55124e-006 -3.01207 8.0293 -4.95146 0.69768 -82.4147 -1.5852 3.23086 -95.0034 1.51183 -24.6591 -6.01903e-007 2.33448e-007 8.18452e-006 -4.14958 7.59094 1.22412 -1.04969e-005 -9.89985e-007 3.00993 -8.02973 -4.95143 -0.697661 174.139 5.84592 2.5946 -180 7.01489e-015 178.694 -179.589 27.3825 178.695 1.6134e-006 -4.95199e-006 0.477408 -18.7553 67.9348 19.4811 8.15451 27.5962 -0.308583 175.1 -4.68267 3.97204 4.54188e-006 -4.6773e-006 -1.10519 -4.80748 -9.0772 -0.145669 -1.11132e-006 4.10045e-006 -0.104026 19.3249 69.0406 -20.4323 -8.1365 25.2327 3.48774 
58.976 92.7572 7.01078 1.32993 -9.59828 -4.91621 0.144996 -0.0034553 0.100556 0.284149 3.99614 0.182644 0.282381 5.6412 0.17807 -15.7813 1.55944 0.411711 15.3923 9.64985 -2.05608 55.137 -3.3858 -1.78332 119.929 5.68534 15.7775 4.69567e-007 -9.95962e-007 -8.20839e-006 7.11962 3.08062 -1.26969 5.24525e-006 2.55124e-006 -3.01207 8.0293 -4.95146 0.69768 -82.3845 -1.59225 3.23078 -94.9448 1.48468 -24.648 -6.01903e-007 2.33448e-007 8.18452e-006 -4.17679 7.63811 1.22865 -1.04969e-005 -9.89985e-007 3.00993 -8.02973 -4.95143 -0.697661 174.165 5.89836 2.5755 -180 7.01489e-015 178.694 -179.592 27.3696 178.696 1.6134e-006 -4.95199e-006 0.477408 -18.7494 67.9278 19.4747 8.15473 27.5902 -0.316416 175.12 -4.61829 3.9698 4.54188e-006 -4.6773e-006 -1.10502 -4.80555 -9.08772 -0.145799 -1.11132e-006 4.10045e-006 -0.104026 19.3339 69.0506 -20.4417 -8.1365 25.2327 3.48774 
